<?xml version="1.0" encoding="utf-8"?>
<!-- Generator: Adobe Illustrator 16.0.0, SVG Export Plug-In . SVG Version: 6.00 Build 0)  -->
<!DOCTYPE svg PUBLIC "-//W3C//DTD SVG 1.1//EN" "http://www.w3.org/Graphics/SVG/1.1/DTD/svg11.dtd">
<svg version="1.1" id="Layer_1" xmlns="http://www.w3.org/2000/svg" xmlns:xlink="http://www.w3.org/1999/xlink" x="0px" y="0px"
	 width="595.279px" height="841.891px" viewBox="0 0 595.279 841.891" enable-background="new 0 0 595.279 841.891"
	 xml:space="preserve">
<path fill="#FFFFFF" d="M375.32,420.945l203.882-203.882c21.447-21.447,21.447-56.226,0-77.673
	c-21.446-21.447-56.212-21.447-77.658,0L297.647,343.272L93.765,139.39c-21.447-21.447-56.226-21.447-77.673,0
	s-21.447,56.226,0,77.673l203.882,203.882L16.092,624.841c-21.447,21.447-21.447,56.227,0,77.659
	c10.724,10.71,24.783,16.078,38.829,16.078c14.047,0,28.106-5.368,38.844-16.092l203.868-203.882L501.53,702.486
	c10.723,10.724,24.783,16.092,38.829,16.092s28.106-5.368,38.829-16.092c21.447-21.447,21.447-56.226,0-77.659L375.32,420.945z"/>
</svg>
