<svg xmlns="http://www.w3.org/2000/svg" width="28" height="29" viewBox="0 0 28 29">
    <path fill="#FFF" fill-rule="evenodd" d="M20.936 19.332c-.29.81-1.712 1.59-2.351 1.648-.639.058-1.238.288-4.18-.868-3.541-1.389-5.777-5.002-5.95-5.233-.175-.232-1.423-1.88-1.423-3.587 0-1.706.9-2.545 1.22-2.892a1.28 1.28 0 0 1 .928-.434c.232 0 .464 0 .667.009.248.01.523.022.784.599.31.686.987 2.4 1.074 2.572.087.174.145.376.029.607-.116.232-.174.377-.348.579-.174.202-.366.452-.522.607-.175.173-.357.36-.154.708.204.347.903 1.482 1.938 2.401 1.331 1.182 2.453 1.547 2.802 1.721.348.174.551.145.755-.086.203-.232.87-1.013 1.102-1.36.233-.347.465-.29.784-.174.32.117 2.032.955 2.38 1.129.348.173.581.26.668.405.087.145.087.839-.203 1.649m2.985-14.763A13.885 13.885 0 0 0 14.059.5C6.374.5.12 6.724.118 14.374a13.8 13.8 0 0 0 1.86 6.937L0 28.5l7.39-1.93a13.986 13.986 0 0 0 6.663 1.69h.006c7.683 0 13.938-6.225 13.941-13.875a13.757 13.757 0 0 0-4.08-9.816"/>
</svg>
